<svg width="36" height="36" viewBox="0 0 36 36" fill="none" xmlns="http://www.w3.org/2000/svg">
<path d="M18 28C15.4444 28 13.2176 27.1528 11.3194 25.4583C9.4213 23.7639 8.33333 21.6481 8.05556 19.1111H10.3333C10.5926 21.037 11.4491 22.6296 12.9028 23.8889C14.3565 25.1481 16.0556 25.7778 18 25.7778C20.1667 25.7778 22.0046 25.0231 23.5139 23.5139C25.0231 22.0046 25.7778 20.1667 25.7778 18C25.7778 15.8333 25.0231 13.9954 23.5139 12.4861C22.0046 10.9769 20.1667 10.2222 18 10.2222C16.7222 10.2222 15.5278 10.5185 14.4167 11.1111C13.3056 11.7037 12.3704 12.5185 11.6111 13.5556H14.6667V15.7778H8V9.11111H10.2222V11.7222C11.1667 10.537 12.3194 9.62037 13.6806 8.97222C15.0417 8.32407 16.4815 8 18 8C19.3889 8 20.6898 8.26389 21.9028 8.79167C23.1157 9.31944 24.1713 10.0324 25.0694 10.9306C25.9676 11.8287 26.6806 12.8843 27.2083 14.0972C27.7361 15.3102 28 16.6111 28 18C28 19.3889 27.7361 20.6898 27.2083 21.9028C26.6806 23.1157 25.9676 24.1713 25.0694 25.0694C24.1713 25.9676 23.1157 26.6806 21.9028 27.2083C20.6898 27.7361 19.3889 28 18 28ZM21.1111 22.6667L16.8889 18.4444V12.4444H19.1111V17.5556L22.6667 21.1111L21.1111 22.6667Z" fill="#020202"/>
</svg>
