<svg width="57" height="56" viewBox="0 0 57 56" fill="none" xmlns="http://www.w3.org/2000/svg">
<path d="M48.5703 25.8125C48.5703 24.5765 47.575 23.5812 46.3391 23.5812C45.1031 23.5812 44.1078 24.5765 44.1078 25.8125C44.1078 33.4687 37.1078 39.6922 28.5 39.6922C19.8922 39.6922 12.8922 33.4687 12.8922 25.8125C12.8922 24.5765 11.8969 23.5812 10.6609 23.5812C9.425 23.5812 8.42969 24.5765 8.42969 25.8125C8.42969 35.2406 16.25 43.0281 26.2688 44.0453V50.3344H23.6875C22.4516 50.3344 21.4563 51.3297 21.4563 52.5656C21.4563 53.8015 22.4516 54.7969 23.6875 54.7969H33.3125C34.5484 54.7969 35.5437 53.8015 35.5437 52.5656C35.5437 51.3297 34.5484 50.3344 33.3125 50.3344H30.7312V44.0453C40.75 43.0281 48.5703 35.2406 48.5703 25.8125Z" fill="#C51345"/>
<path d="M28.5 35.3828C34.0781 35.3828 38.5953 30.8656 38.5953 25.2875V11.2984C38.5953 5.72031 34.0781 1.20312 28.5 1.20312C22.9219 1.20312 18.4047 5.72031 18.4047 11.2984V25.2875C18.4047 30.8656 22.9219 35.3828 28.5 35.3828ZM22.7797 11.2984C22.7797 8.14844 25.35 5.57812 28.5 5.57812C31.65 5.57812 34.2203 8.14844 34.2203 11.2984V25.2875C34.2203 28.4375 31.65 31.0078 28.5 31.0078C25.35 31.0078 22.7797 28.4375 22.7797 25.2875V11.2984Z" fill="#C51345"/>
</svg>
