<svg width="30" height="30" viewBox="0 0 30 30" fill="none" xmlns="http://www.w3.org/2000/svg">
<path d="M18.9231 13.15C18.4154 13.15 17.9808 12.9727 17.6192 12.6181C17.2577 12.2635 17.0769 11.8242 17.0769 11.3V7.6C17.0769 7.07583 17.2577 6.63646 17.6192 6.28188C17.9808 5.92729 18.4154 5.75 18.9231 5.75C19.4462 5.75 19.8846 5.92729 20.2385 6.28188C20.5923 6.63646 20.7692 7.07583 20.7692 7.6V11.3C20.7692 11.8242 20.5923 12.2635 20.2385 12.6181C19.8846 12.9727 19.4462 13.15 18.9231 13.15ZM7.84615 24.25C7.33846 24.25 6.90385 24.0689 6.54231 23.7066C6.18077 23.3443 6 22.9088 6 22.4V7.6C6 7.09125 6.18077 6.65573 6.54231 6.29344C6.90385 5.93115 7.33846 5.75 7.84615 5.75H15.2308V7.6H7.84615V22.4H18V20.55H19.8462V22.4C19.8462 22.9088 19.6654 23.3443 19.3038 23.7066C18.9423 24.0689 18.5077 24.25 18 24.25H7.84615ZM9.69231 20.55V18.7H16.1538V20.55H9.69231ZM9.69231 17.775V15.925H14.3077V17.775H9.69231ZM19.8462 18.7H18V16.295C16.8154 16.0792 15.8269 15.5049 15.0346 14.5722C14.2423 13.6395 13.8462 12.5488 13.8462 11.3H15.6923C15.6923 12.1942 16.0077 12.9573 16.6385 13.5894C17.2692 14.2215 18.0308 14.5375 18.9231 14.5375C19.8308 14.5375 20.5962 14.2215 21.2192 13.5894C21.8423 12.9573 22.1538 12.1942 22.1538 11.3H24C24 12.5488 23.6077 13.6395 22.8231 14.5722C22.0385 15.5049 21.0462 16.0792 19.8462 16.295V18.7Z" fill="#020202"/>
</svg>
