<svg width="37" height="36" viewBox="0 0 37 36" fill="none" xmlns="http://www.w3.org/2000/svg">
<path d="M10.5 13H26.5V11H10.5V13ZM8.5 11C8.5 10.45 8.69583 9.97917 9.0875 9.5875C9.47917 9.19583 9.95 9 10.5 9H26.5C27.05 9 27.5208 9.19583 27.9125 9.5875C28.3042 9.97917 28.5 10.45 28.5 11V17H10.5V23H14.6V25H10.5C9.95 25 9.47917 24.8042 9.0875 24.4125C8.69583 24.0208 8.5 23.55 8.5 23V11ZM21.45 27L17.2 22.75L18.6 21.35L21.45 24.15L27.1 18.5L28.5 19.95L21.45 27ZM10.5 11V23V18.5V21.325V11Z" fill="#020202"/>
</svg>
