<svg width="36" height="36" viewBox="0 0 36 36" fill="none" xmlns="http://www.w3.org/2000/svg">
<rect width="36" height="36" rx="18" fill="#F2F3F7"/>
<path d="M10.5 27C9.95 27 9.47917 26.8042 9.0875 26.4125C8.69583 26.0208 8.5 25.55 8.5 25V11C8.5 10.45 8.69583 9.97917 9.0875 9.5875C9.47917 9.19583 9.95 9 10.5 9H24.5C25.05 9 25.5208 9.19583 25.9125 9.5875C26.3042 9.97917 26.5 10.45 26.5 11V13.5H24.5V11H10.5V25H24.5V22.5H26.5V25C26.5 25.55 26.3042 26.0208 25.9125 26.4125C25.5208 26.8042 25.05 27 24.5 27H10.5ZM18.5 23C17.95 23 17.4792 22.8042 17.0875 22.4125C16.6958 22.0208 16.5 21.55 16.5 21V15C16.5 14.45 16.6958 13.9792 17.0875 13.5875C17.4792 13.1958 17.95 13 18.5 13H25.5C26.05 13 26.5208 13.1958 26.9125 13.5875C27.3042 13.9792 27.5 14.45 27.5 15V21C27.5 21.55 27.3042 22.0208 26.9125 22.4125C26.5208 22.8042 26.05 23 25.5 23H18.5ZM25.5 21V15H18.5V21H25.5ZM21.5 19.5C21.9167 19.5 22.2708 19.3542 22.5625 19.0625C22.8542 18.7708 23 18.4167 23 18C23 17.5833 22.8542 17.2292 22.5625 16.9375C22.2708 16.6458 21.9167 16.5 21.5 16.5C21.0833 16.5 20.7292 16.6458 20.4375 16.9375C20.1458 17.2292 20 17.5833 20 18C20 18.4167 20.1458 18.7708 20.4375 19.0625C20.7292 19.3542 21.0833 19.5 21.5 19.5Z" fill="#020202"/>
</svg>
